<?xml version="1.0" encoding="utf-8"?>
<!-- Generator: Adobe Illustrator 16.0.0, SVG Export Plug-In . SVG Version: 6.00 Build 0)  -->
<!DOCTYPE svg PUBLIC "-//W3C//DTD SVG 1.1//EN" "http://www.w3.org/Graphics/SVG/1.1/DTD/svg11.dtd">
<svg version="1.1" xmlns="http://www.w3.org/2000/svg" xmlns:xlink="http://www.w3.org/1999/xlink" x="0px" y="0px" width="50px"
	 height="50px" viewBox="0 0 50 50" enable-background="new 0 0 50 50" xml:space="preserve">
<g id="Capa_2" display="none">
	<g display="inline">
		<path fill="#E20714" d="M44.312,50H5.586c-3.079,0-5.584-2.504-5.584-5.584V21.714c0-3.08,2.505-5.584,5.584-5.584h38.727
			c3.079,0,5.585,2.504,5.585,5.584v22.702C49.897,47.496,47.392,50,44.312,50"/>
		<path fill="#E7412C" d="M5.586,16.13c-3.08,0-5.584,2.505-5.584,5.584v22.703C0.001,47.495,2.506,50,5.586,50h8.573l19.555-33.87
			H5.586z"/>
		<path fill="#EC694B" d="M2.552,19.225c0-0.914,0.226-1.775,0.616-2.538c-1.87,0.904-3.166,2.813-3.166,5.027v2.428h2.55V19.225z"
			/>
		<path fill="#EC694B" d="M0.001,31.305v13.111C0.001,47.495,2.506,50,5.586,50h2.551c-3.08,0-5.585-2.505-5.585-5.584V31.305H0.001
			z"/>
		<rect x="2.552" y="24.142" fill="#4D597C" width="47.346" height="7.162"/>
		<rect x="0.001" y="24.142" fill="#797D9A" width="2.551" height="7.162"/>
		<rect x="2.552" y="24.142" fill="#455377" width="47.346" height="7.162"/>
		<polygon fill="#556082" points="29.089,24.142 2.552,24.142 2.552,31.304 24.953,31.304 		"/>
	</g>
</g>
<g id="Capa_3" display="none">
	<g display="inline">
		<g>
			<path fill="#F3F8FA" d="M5.562,17.297c0,0,0.466-1.997,1.998-1.997c1.531,0,35.482,0,35.482,0s1.929,0.199,1.929,1.997
				c0,1.797,0,23.711,0,23.711H5.562V17.297z"/>
		</g>
		<g>
			<path fill="#E6F0F7" d="M35.527,15.143c0,0,4.273-0.017,7.293,0c0.863,0.005,1.588,0.475,1.916,1.035
				c0.372,0.636,0.281,1.372,0.281,1.372l0.108,22.956H20.465C20.465,40.506,35.343,15.143,35.527,15.143z"/>
		</g>
		<g>
			<path fill="#455377" d="M46.342,41.672H4.274V17.067l0.023-0.085c0.278-1.042,1.384-3.014,3.583-3.014h35.055l0.03,0.003
				c1.168,0.106,3.377,1.066,3.377,3.938V41.672z M5.606,40.34h39.406V17.909c0-2.275-1.889-2.58-2.142-2.609H7.88
				c-1.548,0-2.153,1.578-2.274,1.951V40.34z"/>
		</g>
		<g>
			<path fill="#455377" d="M0.037,40.663h49.927v6.112c0,0-0.731,3.128-3.194,3.194c-2.464,0.067-43.871,0-43.871,0
				s-2.862,0.2-2.862-2.993C0.037,43.779,0.037,40.663,0.037,40.663z"/>
		</g>
		<g>
			<rect x="20.674" y="40.353" fill="#384563" width="8.72" height="2.529"/>
		</g>
	</g>
</g>
<g id="Capa_1">
	<g>
		<path fill="#455377" d="M38.345,49.999H10.124c-2.203,0-3.996-1.792-3.996-3.994V4.668c0-2.204,1.792-3.996,3.996-3.996h28.221
			c2.202,0,3.995,1.792,3.995,3.996v41.337C42.34,48.207,40.547,49.999,38.345,49.999"/>
		<path fill="#556082" d="M35.187,5.997h-7.582l-8.092,14.014h15.674c1.225,0,2.221-0.997,2.221-2.22V8.218
			C37.407,6.995,36.411,5.997,35.187,5.997"/>
		<path fill="#676E8E" d="M13.283,5.997c-1.225,0-2.221,0.998-2.221,2.221v9.573c0,1.224,0.997,2.22,2.221,2.22h6.229l8.091-14.014
			H13.283z"/>
		<path fill="#E6F1F7" d="M13.283,7.678c-0.298,0-0.54,0.243-0.54,0.54v9.572c0,0.297,0.242,0.54,0.54,0.54h21.904
			c0.297,0,0.539-0.243,0.539-0.54V8.218c0-0.296-0.242-0.54-0.539-0.54H13.283z"/>
		<path fill="#4D597C" d="M31.634,16.214c-0.465,0-0.841-0.376-0.841-0.84v-4.74c0-0.464,0.376-0.841,0.841-0.841
			c0.464,0,0.84,0.376,0.84,0.841v4.74C32.474,15.838,32.098,16.214,31.634,16.214"/>
		<path fill="#A0A8C4" d="M12.383,23.335c1.095-1.096,2.877-1.096,3.973,0c1.096,1.095,1.096,2.877,0,3.973
			c-1.095,1.095-2.877,1.095-3.973,0C11.287,26.213,11.287,24.431,12.383,23.335"/>
		<path fill="#B4B9D0" d="M12.383,23.335c1.095-1.096,2.877-1.096,3.973,0c1.096,1.095-2.877,5.068-3.973,3.973
			C11.287,26.213,11.287,24.431,12.383,23.335"/>
		<path fill="#A0A8C4" d="M12.383,32.119c1.095-1.096,2.877-1.096,3.973,0c1.096,1.097,1.096,2.878,0,3.974
			c-1.095,1.096-2.877,1.096-3.973,0C11.287,34.997,11.287,33.216,12.383,32.119"/>
		<path fill="#B4B9D0" d="M12.383,32.119c1.095-1.096,2.877-1.096,3.973,0c1.096,1.097-2.877,5.069-3.973,3.974
			C11.287,34.997,11.287,33.216,12.383,32.119"/>
		<path fill="#A0A8C4" d="M12.383,40.614c1.095-1.096,2.877-1.096,3.973,0c1.096,1.096,1.096,2.877,0,3.974
			c-1.095,1.095-2.877,1.095-3.973,0C11.287,43.491,11.287,41.71,12.383,40.614"/>
		<path fill="#B4B9D0" d="M12.383,40.614c1.095-1.096,2.877-1.096,3.973,0c1.096,1.096-2.877,5.068-3.973,3.974
			C11.287,43.491,11.287,41.71,12.383,40.614"/>
		<path fill="#A0A8C4" d="M22.249,32.119c1.096-1.096,2.877-1.096,3.974,0c1.096,1.097,1.096,2.878,0,3.974
			c-1.096,1.096-2.878,1.096-3.974,0C21.154,34.997,21.154,33.216,22.249,32.119"/>
		<path fill="#B4B9D0" d="M22.249,32.119c1.096-1.096,2.877-1.096,3.974,0c1.096,1.097-2.878,5.069-3.974,3.974
			C21.154,34.997,21.154,33.216,22.249,32.119"/>
		<path fill="#A0A8C4" d="M22.249,40.614c1.096-1.096,2.877-1.096,3.974,0c1.096,1.096,1.096,2.877,0,3.974
			c-1.096,1.095-2.878,1.095-3.974,0C21.154,43.491,21.154,41.71,22.249,40.614"/>
		<path fill="#B4B9D0" d="M22.249,40.614c1.096-1.096,2.877-1.096,3.974,0c1.096,1.096-2.878,5.068-3.974,3.974
			C21.154,43.491,21.154,41.71,22.249,40.614"/>
		<path fill="#A0A8C4" d="M32.114,32.119c1.095-1.096,2.876-1.096,3.972,0c1.096,1.097,1.096,2.878,0,3.974s-2.877,1.096-3.972,0
			C31.018,34.997,31.018,33.216,32.114,32.119"/>
		<path fill="#B4B9D0" d="M32.114,32.119c1.095-1.096,2.876-1.096,3.972,0c1.096,1.097-2.877,5.069-3.972,3.974
			C31.018,34.997,31.018,33.216,32.114,32.119"/>
		<path fill="#A0A8C4" d="M32.114,40.614c1.095-1.096,2.876-1.096,3.972,0s1.096,2.877,0,3.974c-1.096,1.095-2.877,1.095-3.972,0
			C31.018,43.491,31.018,41.71,32.114,40.614"/>
		<path fill="#B4B9D0" d="M32.114,40.614c1.095-1.096,2.876-1.096,3.972,0s-2.877,5.068-3.972,3.974
			C31.018,43.491,31.018,41.71,32.114,40.614"/>
		<path fill="#68C3C9" d="M22.249,23.335c1.096-1.096,2.877-1.096,3.974,0c1.096,1.095,1.096,2.877,0,3.973
			c-1.096,1.095-2.878,1.095-3.974,0C21.154,26.213,21.154,24.431,22.249,23.335"/>
		<path fill="#A1D6DB" d="M22.249,23.335c1.096-1.096,2.877-1.096,3.974,0c1.096,1.095-2.878,5.068-3.974,3.973
			C21.154,26.213,21.154,24.431,22.249,23.335"/>
		<path fill="#E20714" d="M32.114,23.335c1.095-1.096,2.876-1.096,3.972,0c1.096,1.095,1.096,2.877,0,3.973
			c-1.096,1.095-2.877,1.095-3.972,0C31.018,26.213,31.018,24.431,32.114,23.335"/>
		<path fill="#EA5D40" d="M32.114,23.335c1.095-1.096,2.876-1.096,3.972,0c1.096,1.095-2.877,5.068-3.972,3.973
			C31.018,26.213,31.018,24.431,32.114,23.335"/>
		<path fill="#F3F8FB" d="M13.283,7.678c-0.298,0-0.54,0.243-0.54,0.54v9.572c0,0.297,0.242,0.54,0.54,0.54h7.201l6.148-10.652
			H13.283z"/>
		<rect x="6.128" y="9.242" fill="#556082" width="2.592" height="2.591"/>
		<path fill="#556082" d="M8.719,46.566V0.932c-1.511,0.571-2.59,2.027-2.59,3.736v41.338c0,2.202,1.792,3.994,3.996,3.994h0.559
			C9.51,49.304,8.719,48.027,8.719,46.566"/>
	</g>
</g>
</svg>
