<?xml version="1.0" encoding="utf-8"?>
<!-- Generator: Adobe Illustrator 16.0.0, SVG Export Plug-In . SVG Version: 6.00 Build 0)  -->
<!DOCTYPE svg PUBLIC "-//W3C//DTD SVG 1.1//EN" "http://www.w3.org/Graphics/SVG/1.1/DTD/svg11.dtd">
<svg version="1.1" xmlns="http://www.w3.org/2000/svg" xmlns:xlink="http://www.w3.org/1999/xlink" x="0px" y="0px" width="80px"
	 height="80px" viewBox="0 0 80 80" enable-background="new 0 0 80 80" xml:space="preserve">
<g id="Capa_1" display="none">
	<g display="inline">
		<path fill="#455377" d="M71.066,80H9.01c-3.461,0-6.277-2.815-6.277-6.277v-3.004c0-6.805,8.652-12.344,19.289-12.344
			c2.059,0,4.596,0.433,6.834,0.813c0.503,0.087,0.985,0.168,1.434,0.241c1.713,0.275,3.457,0.645,5.183,1.101
			c0.283,0.073,0.565,0.15,0.847,0.227c1.278,0.354,2.485,0.684,3.717,0.684c1.174,0,3.011-0.478,4.785-0.941
			c0.623-0.163,1.239-0.325,1.824-0.462c3.163-0.759,7.713-1.662,11.408-1.662c11.177,0,19.289,5.192,19.289,12.344v3.004
			C77.344,77.185,74.526,80,71.066,80"/>
		<path fill="#676E8E" d="M45.865,61.293c-0.465-0.546-1.226-0.744-1.924-0.576c-1.146,0.281-3.1,0.724-3.904,0.724
			c-0.538,0-1.072-0.07-1.608-0.171c0.259,0.065,0.518,0.117,0.776,0.185c0.282,0.075,0.565,0.152,0.846,0.23
			c1.28,0.351,2.484,0.681,3.717,0.681C46.222,62.365,46.295,61.8,45.865,61.293"/>
		<path fill="#4D597C" d="M36.64,60.846c-0.107-0.03-0.212-0.057-0.319-0.089c-0.282-0.076-0.564-0.153-0.847-0.227
			c-1.726-0.456-3.47-0.825-5.183-1.101c-0.449-0.073-0.932-0.154-1.434-0.241c-2.238-0.381-4.775-0.813-6.834-0.813
			c-10.637,0-19.289,5.539-19.289,12.344v3.004C2.733,77.185,5.549,80,9.01,80h16.569L36.64,60.846z"/>
		<path fill="#676E8E" d="M35.474,60.53c-1.727-0.456-3.47-0.823-5.183-1.101c-0.449-0.073-0.933-0.154-1.435-0.239
			c-2.238-0.383-4.776-0.813-6.835-0.813c-10.637,0-19.289,5.537-19.289,12.342v3.004C2.733,77.185,5.548,80,9.01,80h0.466
			c-1.803-1.104-3.012-3.085-3.012-5.353v-3.001c0-6.807,8.653-12.347,19.287-12.347c2.061,0,4.598,0.433,6.836,0.814
			c0.503,0.085,0.984,0.166,1.435,0.239c0.872,0.142,1.751,0.307,2.631,0.495c-0.111-0.031-0.219-0.06-0.332-0.092
			C36.039,60.681,35.756,60.604,35.474,60.53"/>
		<path fill="#F6DBD8" d="M40.025,51.974c-7.933,0-14.064-5.26-15.257-13.091l-2.006-16.051c-0.645-3.953,0.492-7.913,3.208-11.109
			c3.323-3.906,8.708-6.334,14.054-6.334c5.354,0,10.752,2.432,14.083,6.347c2.713,3.192,3.851,7.15,3.199,11.143L55.313,38.85
			C54.115,46.714,47.974,51.974,40.025,51.974"/>
		<path fill="#F8E0DE" d="M25.97,11.724c-2.716,3.194-3.853,7.156-3.208,11.109l1.276,10.211L40.003,5.39
			C34.664,5.396,29.288,7.822,25.97,11.724"/>
	</g>
</g>
<g id="Capa_2">
	<g>
		<path fill="#F3F8FA" d="M10.897,30.895c0,0,0.697-2.989,2.989-2.989c2.291,0,53.097,0,53.097,0s2.888,0.299,2.888,2.989
			c0,2.69,0,35.482,0,35.482H10.897V30.895z"/>
	</g>
	<g>
		<path fill="#E6F0F7" d="M55.74,27.671c0,0,6.393-0.025,10.912,0c1.291,0.007,2.377,0.711,2.866,1.549
			c0.558,0.953,0.423,2.054,0.423,2.053l0.161,34.353H33.199C33.199,65.626,55.463,27.671,55.74,27.671z"/>
	</g>
	<g>
		<path fill="#455377" d="M71.923,67.373H8.971V30.55l0.033-0.126c0.416-1.56,2.072-4.511,5.362-4.511h52.458l0.044,0.004
			c1.749,0.159,5.056,1.595,5.056,5.894V67.373z M10.962,65.379H69.93V31.812c0-3.405-2.823-3.86-3.204-3.906h-52.36
			c-2.317,0-3.222,2.361-3.403,2.921V65.379z"/>
	</g>
	<g>
		<path fill="#455377" d="M2.628,65.861h74.713v9.146c0,0-1.095,4.682-4.78,4.781c-3.688,0.1-65.649,0-65.649,0
			s-4.284,0.299-4.284-4.482C2.628,70.523,2.628,65.861,2.628,65.861z"/>
	</g>
	<g>
		<rect x="33.51" y="65.396" fill="#3B4A6B" width="13.049" height="3.785"/>
	</g>
</g>
<g id="Capa_3" display="none">
	<path display="inline" fill="#CFE2EA" d="M45.486,6.968c0,0,8.996,5.635,9.694,16.96c0.7,11.323,0,18.487,0,18.487h4.698V21.659
		c0,0-2.11-14.891-19.397-16.217C40.481,5.442,44.169,5.991,45.486,6.968z"/>
	<path display="inline" fill="#CFE2EA" d="M24.556,42.416h3.89V22.46c0,0,0.749-8.896,11.785-9.065c0,0-15.583-1.878-15.583,7.415
		C24.648,34.902,24.556,42.416,24.556,42.416z"/>
	<path display="inline" fill="#DDEBF1" d="M24.806,42.416V20.81c0,0,0.992-8.145,13.92-7.46c9.75,0.515,10.134,7.238,10.134,9.576
		c0,2.34,0,19.491,0,19.491h8.908V21.479c0,0-2.005-16.045-18.709-16.037c-11.916,0.007-20.602,4.901-20.602,16.371
		s0,20.603,0,20.603H24.806z"/>
	<path display="inline" fill="#FED13A" d="M12.855,42.416h54.269c0,0,1.299,0.222,1.299,1.815c0,2.898,0,28.399,0,28.399
		s-2.72,7.096-8.904,7.096c-6.187,0-40.067,0-40.067,0s-7.896-2.101-7.896-9.194c0-7.098,0-26.301,0-26.301
		S11.356,42.416,12.855,42.416z"/>
	<path display="inline" fill="#FEE8A6" d="M16.645,42.416v36.078c0,0-5.181-2.104-5.097-8.377c0.094-6.994,0-26.3,0-26.3
		s0.026-1.298,1.093-1.388C13.165,42.384,14.94,42.416,16.645,42.416z"/>
	<path display="inline" fill="#EAC872" d="M63.325,42.416v36.309c0,0,1.255-0.615,2.568-2.083c1.239-1.389,2.528-3.486,2.528-4.029
		c0-6.994,0-28.795,0-28.795s-0.024-1.298-1.093-1.388C66.805,42.384,65.03,42.416,63.325,42.416z"/>
	<path display="inline" fill="#455377" d="M45.183,63.636c0,2.869-2.327,5.197-5.198,5.197l0,0c-2.869,0-5.197-2.328-5.197-5.197
		V57.44c0-2.871,2.328-5.197,5.197-5.197l0,0c2.871,0,5.198,2.326,5.198,5.197V63.636z"/>
</g>
<g id="Capa_4" display="none">
	<path display="inline" fill="#EFF7F9" d="M14.039,5.206c0,0,0.561-4.21,5.329-4.632c4.767-0.42,22.998,0,22.998,0
		s4.627,0.982,4.417,5.754s0,56.697,0,56.697H17.544c0,0-3.506-1.543-3.506-7.578C14.039,49.413,14.039,5.206,14.039,5.206z"/>
	<path display="inline" fill="#E6F0F7" d="M43.364,1.089L14.039,51.704l0.526,8.153c0,0,1.446,2.892,3.024,3.024
		c1.578,0.132,29.009-0.79,29.009-0.79L47.31,5.033C47.31,5.033,46.914,2.14,43.364,1.089z"/>
	<g display="inline">
		<path fill="#455377" d="M43.364,63.934H17.983c-2.748,0-4.984-2.236-4.984-4.984V5.033c0-2.748,2.236-4.983,4.984-4.983h25.381
			c2.748,0,4.984,2.235,4.984,4.983v53.916C48.349,61.697,46.112,63.934,43.364,63.934z M17.983,2.128
			c-1.602,0-2.906,1.304-2.906,2.905v53.916c0,1.603,1.304,2.906,2.906,2.906h25.381c1.603,0,2.906-1.304,2.906-2.906V5.033
			c0-1.602-1.304-2.905-2.906-2.905H17.983z"/>
	</g>
	<path display="inline" fill="#F7DFDE" d="M29.988,32.455c0,0,3.984-2.497,7.404,0c3.419,2.495,14.129,11.831,14.129,11.831V27.742
		c0,0,14.407,3.46,15.985,22.133c1.577,18.674,0,23.233,0,23.233s-1.054,6.618-5.654,6.618H31.606v-6.618
		c0,0-3.814-4.779-4.382-9.175l12.804,0.068l0.273-8.704c0,0-6.985-8.447-8.826-13.049C29.634,37.646,27.994,33.285,29.988,32.455z"
		/>
	<path display="inline" fill="#F3D0CF" d="M32.921,31.707c0,0-8.548,0.547-4.997,8.175c3.551,7.627,8.417,10.52,10.257,18.146
		c0.438,1.815,1.048,3.497,1.875,5.031c2.647,4.915,7.522,8.325,16.141,9.828c0,0,5.26,1.053,4.208-1.445
		c-1.053-2.499-2.448-5.012-11.571-12.23c-8.877-7.021-13.249-11.591-16.175-16.963C31.37,39.882,28.45,34.95,32.921,31.707z"/>
	<path display="inline" fill="#F3D0CF" d="M27.224,63.934c0,0,0.265,1.945,1.274,4.062c0.657,0.131,15.66-0.063,15.66-0.063
		l-4.125-4.073L27.224,63.934z"/>
	<path display="inline" fill="#F3D0CF" d="M48.307,26.731c0,0,3.288,0.526,3.813,1.578c0.527,1.052,0,16.504,0,16.504l-3.813-3.354
		V26.731z"/>
	<polygon display="inline" fill="#F3D0CF" points="40.032,63.858 42.15,66.076 41.092,63.502 40.032,62.819 	"/>
	<path display="inline" fill="#455377" d="M38.338,8.652c0,0.751-0.609,1.361-1.361,1.361h-8.482c-0.752,0-1.361-0.61-1.361-1.361
		l0,0c0-0.751,0.609-1.359,1.361-1.359h8.482C37.729,7.293,38.338,7.901,38.338,8.652L38.338,8.652z"/>
	<circle display="inline" fill="#455377" cx="24.371" cy="8.656" r="1.361"/>
</g>
</svg>
